<?xml version="1.0" standalone="no"?>
<!DOCTYPE svg PUBLIC "-//W3C//DTD SVG 20010904//EN"
 "http://www.w3.org/TR/2001/REC-SVG-20010904/DTD/svg10.dtd">
<svg version="1.0" xmlns="http://www.w3.org/2000/svg"
 width="2560.000000pt" height="2560.000000pt" viewBox="0 0 2560.000000 2560.000000"
 preserveAspectRatio="xMidYMid meet">

<g transform="translate(0.000000,2560.000000) scale(0.100000,-0.100000)"
fill="#000000" stroke="none">
<path d="M0 12800 l0 -12800 12800 0 12800 0 0 12800 0 12800 -12800 0 -12800
0 0 -12800z m3658 4671 c154 -51 237 -97 330 -185 41 -38 132 -156 132 -170 0
-4 10 -23 23 -44 13 -20 31 -66 41 -102 10 -36 23 -78 30 -95 8 -22 12 -671
16 -2390 3 -1298 9 -2369 12 -2380 4 -11 14 -49 22 -85 44 -185 98 -283 231
-416 177 -178 266 -229 515 -294 60 -16 246 -31 485 -39 303 -11 295 -17 211
162 -24 50 -47 103 -51 117 -4 14 -18 48 -31 75 -71 150 -147 444 -179 690
-18 139 -21 537 -5 648 39 269 65 384 132 582 76 227 160 414 234 525 13 19
24 38 24 43 0 29 190 294 298 417 95 107 295 306 347 345 22 16 60 46 85 67
40 33 164 116 282 190 42 26 229 120 298 150 19 9 61 27 93 42 32 14 63 26 70
26 7 0 17 4 22 9 6 4 33 16 60 25 152 50 184 59 220 66 22 5 69 16 105 25 159
40 364 64 540 64 194 1 506 -30 650 -62 36 -8 88 -20 116 -25 28 -6 61 -15 75
-20 13 -6 44 -16 69 -22 68 -19 133 -39 155 -49 107 -45 327 -145 390 -178 41
-21 335 -217 360 -240 11 -10 43 -36 70 -57 183 -145 421 -405 564 -616 114
-168 153 -240 260 -485 12 -27 26 -59 31 -70 31 -69 112 -335 143 -475 31
-138 37 -169 53 -310 32 -275 -2 -681 -86 -1020 -17 -70 -62 -204 -71 -215 -5
-5 -9 -15 -9 -23 0 -8 -29 -74 -65 -147 -36 -74 -65 -140 -65 -149 0 -8 -5
-27 -12 -41 -6 -14 -8 -28 -4 -33 4 -4 204 -10 444 -14 240 -4 444 -7 452 -8
8 -1 27 3 43 9 32 12 39 -12 -58 201 -176 388 -272 891 -244 1280 15 222 24
282 88 595 16 77 96 308 148 425 59 134 137 290 145 290 4 0 8 5 8 11 0 11
167 261 198 295 29 33 126 150 152 185 50 67 216 225 324 309 10 8 45 38 76
65 32 28 97 75 144 105 48 30 117 74 154 98 174 112 466 231 767 311 22 6 58
16 80 22 43 12 78 18 255 45 154 23 507 23 670 0 185 -26 209 -31 335 -66 66
-18 150 -41 187 -51 38 -10 89 -27 114 -39 26 -11 53 -20 60 -20 7 0 39 -12
71 -26 99 -45 267 -124 288 -136 11 -7 34 -19 51 -28 16 -9 44 -26 61 -38 17
-12 34 -22 37 -22 12 0 252 -179 346 -258 91 -76 269 -257 327 -333 15 -20 53
-67 83 -105 157 -194 323 -493 410 -734 6 -19 16 -44 20 -55 5 -11 23 -67 40
-125 17 -58 35 -119 40 -136 6 -17 10 -39 10 -49 0 -10 4 -32 9 -49 5 -17 17
-76 26 -131 9 -55 21 -129 28 -165 7 -40 11 -163 11 -325 -1 -226 -4 -276 -23
-380 -13 -66 -27 -140 -31 -165 -7 -41 -18 -83 -70 -272 -10 -36 -25 -81 -33
-100 -8 -18 -29 -69 -48 -113 -18 -44 -42 -96 -52 -115 -43 -77 -67 -130 -73
-157 -10 -51 16 -57 326 -64 151 -4 294 -11 318 -17 36 -8 46 -7 65 8 l22 18
2 774 c2 472 7 792 13 821 5 26 10 68 10 94 0 69 35 265 73 413 10 41 23 91
28 110 31 128 171 456 247 580 12 19 25 42 28 50 4 8 37 58 73 110 37 52 75
109 86 125 41 66 210 257 324 368 170 163 345 304 461 369 30 17 62 37 70 43
23 19 297 157 370 187 182 74 364 128 565 169 28 6 69 14 92 19 134 30 567 35
743 10 36 -6 94 -14 130 -19 36 -5 85 -13 110 -19 25 -6 72 -15 105 -22 33 -6
85 -18 115 -27 30 -9 69 -20 85 -24 55 -16 119 -38 175 -59 30 -12 65 -24 78
-27 12 -3 22 -9 22 -14 0 -5 7 -9 16 -9 19 0 252 -115 275 -136 8 -8 19 -14
23 -14 19 0 241 -147 346 -229 152 -118 350 -312 445 -435 17 -22 48 -62 70
-90 49 -61 115 -154 115 -161 0 -2 18 -34 40 -70 22 -36 40 -70 40 -75 0 -6 3
-10 8 -10 4 0 12 -10 18 -23 6 -12 36 -69 66 -127 30 -58 78 -168 107 -245 29
-77 56 -149 61 -160 18 -42 78 -294 99 -410 36 -201 48 -626 23 -775 -53 -317
-69 -385 -125 -560 -159 -494 -428 -909 -823 -1267 -235 -214 -518 -394 -810
-517 -144 -60 -360 -125 -534 -160 -264 -54 -312 -56 -1157 -56 -747 0 -783
-1 -783 -18 0 -10 -4 -22 -10 -28 -6 -6 -11 -483 -12 -1319 l-3 -1310 -28 -78
c-54 -153 -198 -330 -330 -406 -167 -96 -421 -127 -599 -75 -212 64 -421 261
-494 468 -46 129 -46 116 -48 1476 l-1 1285 -1760 2 c-1206 2 -1794 6 -1870
13 -156 16 -279 17 -360 2 -100 -18 -5551 -13 -5670 6 -44 7 -120 15 -168 18
-68 5 -87 9 -83 19 3 9 -1 12 -12 10 -57 -10 -125 -14 -107 -6 11 5 31 10 45
11 23 1 6 7 -128 40 -55 13 -101 12 -52 -2 19 -5 40 -14 45 -20 7 -8 6 -9 -3
-4 -19 11 -112 24 -112 16 0 -10 26 -20 50 -20 10 0 31 -5 47 -11 21 -8 24
-12 13 -19 -10 -6 0 -10 30 -13 35 -3 27 -4 -30 -7 l-75 -3 55 -7 c44 -5 32
-7 -60 -8 -81 -1 -111 1 -100 8 10 7 -16 9 -85 5 -315 -16 -1077 -26 -1665
-22 -577 3 -691 6 -784 21 -159 25 -442 100 -531 141 -16 7 -55 23 -85 35
-228 90 -554 312 -780 532 -145 141 -237 257 -356 448 -196 316 -308 633 -361
1023 -15 109 -17 344 -20 2283 -2 1258 0 2255 5 2385 10 234 18 272 80 409 90
198 256 343 462 405 30 10 66 21 80 25 14 5 74 9 133 9 93 1 119 -3 195 -28z
m4002 -7616 c0 -2 -13 -5 -28 -7 -17 -2 -29 1 -29 7 0 6 12 9 29 7 15 -2 28
-5 28 -7z"/>
<path d="M3548 17263 c7 -3 16 -2 19 1 4 3 -2 6 -13 5 -11 0 -14 -3 -6 -6z"/>
<path d="M8160 14019 c-280 -28 -556 -157 -773 -359 -84 -79 -199 -216 -227
-270 -7 -14 -16 -27 -20 -30 -17 -11 -93 -177 -125 -272 -54 -162 -69 -251
-69 -433 0 -209 37 -384 119 -561 89 -193 257 -403 419 -524 147 -109 340
-195 556 -246 97 -23 123 -25 348 -25 134 0 247 3 252 6 4 2 28 6 54 6 25 1
46 6 46 11 0 5 12 14 28 21 15 6 29 14 32 17 3 3 34 19 70 35 36 17 67 33 68
38 2 4 8 7 13 7 9 0 111 60 119 71 3 3 24 18 46 32 68 43 186 144 237 205 57
67 194 286 224 357 11 28 26 64 33 80 7 17 16 46 21 65 4 19 16 67 25 105 26
107 31 433 9 545 -57 284 -194 539 -399 746 -58 58 -189 157 -269 203 -144 82
-375 153 -561 170 -122 12 -153 12 -276 0z"/>
<path d="M14220 14019 c-25 -5 -70 -14 -100 -20 -205 -41 -447 -157 -595 -285
-89 -76 -101 -88 -154 -149 -118 -134 -225 -314 -279 -470 -49 -138 -77 -347
-69 -509 3 -67 10 -134 15 -151 5 -16 17 -64 27 -105 42 -183 115 -342 221
-483 81 -107 169 -198 249 -257 33 -25 62 -48 65 -51 3 -3 28 -19 55 -34 216
-121 242 -131 475 -187 74 -18 116 -21 320 -21 272 1 328 9 439 63 45 22 84
40 86 40 7 0 179 102 185 110 3 3 41 34 85 67 101 77 152 125 201 188 22 28
41 52 44 55 44 43 190 307 190 343 0 8 3 17 7 21 14 14 44 132 73 291 24 131
25 251 5 366 -20 115 -87 315 -143 427 -90 180 -279 398 -448 517 -75 53 -250
145 -275 145 -8 0 -19 4 -25 9 -16 17 -179 59 -287 75 -113 17 -294 19 -367 5z"/>
<path d="M20320 14009 c-109 -23 -157 -35 -200 -52 -19 -8 -51 -20 -70 -27
-70 -27 -226 -110 -290 -154 -237 -165 -454 -485 -531 -781 -46 -180 -48 -227
-51 -957 -2 -629 0 -696 15 -724 9 -17 24 -34 33 -38 9 -3 105 -2 213 3 108 5
351 10 541 10 633 1 878 13 971 49 13 5 42 15 64 21 81 25 267 126 369 203
175 131 338 328 416 503 17 39 35 79 40 90 21 47 52 157 70 248 16 76 20 140
20 281 l0 183 -40 139 c-66 229 -174 420 -330 587 -163 174 -285 256 -518 351
-201 81 -516 109 -722 65z"/>
<path d="M9248 11333 c6 -2 18 -2 25 0 6 3 1 5 -13 5 -14 0 -19 -2 -12 -5z"/>
<path d="M9203 11313 c15 -2 37 -2 50 0 12 2 0 4 -28 4 -27 0 -38 -2 -22 -4z"/>
<path d="M9318 11313 c23 -2 61 -2 85 0 23 2 4 4 -43 4 -47 0 -66 -2 -42 -4z"/>
<path d="M9658 11313 c34 -2 90 -2 125 0 34 2 6 3 -63 3 -69 0 -97 -1 -62 -3z"/>
<path d="M9938 11313 c12 -2 32 -2 45 0 12 2 2 4 -23 4 -25 0 -35 -2 -22 -4z"/>
<path d="M10178 11313 c12 -2 32 -2 45 0 12 2 2 4 -23 4 -25 0 -35 -2 -22 -4z"/>
<path d="M15298 11313 c12 -2 32 -2 45 0 12 2 2 4 -23 4 -25 0 -35 -2 -22 -4z"/>
<path d="M6599 10343 c13 -10 37 -31 54 -46 16 -15 32 -26 35 -23 6 7 -38 43
-82 69 -30 17 -30 17 -7 0z"/>
<path d="M6720 10253 c14 -9 31 -23 38 -30 7 -7 20 -13 28 -13 8 0 14 -4 14
-8 0 -4 35 -26 78 -47 93 -47 106 -56 93 -64 -5 -4 8 -7 30 -7 l39 -1 -38 20
c-126 67 -169 91 -226 127 -62 39 -105 57 -56 23z"/>
<path d="M7095 10047 c11 -9 28 -17 37 -17 19 0 36 -20 17 -20 -7 0 -10 -2 -7
-5 3 -3 15 -2 28 3 22 8 20 10 -21 26 -69 28 -75 30 -54 13z"/>
<path d="M7216 9995 c10 -8 24 -14 29 -14 6 0 1 6 -9 14 -11 8 -24 15 -30 15
-5 0 -1 -7 10 -15z"/>
<path d="M7370 9940 c8 -5 22 -9 30 -9 10 0 8 3 -5 9 -27 12 -43 12 -25 0z"/>
</g>
</svg>
